<?xml version="1.0" encoding="UTF-8"?>
<svg id="Layer_1" data-name="Layer 1" xmlns="http://www.w3.org/2000/svg" viewBox="0 0 170.08 141.73">
  <defs>
    <style>
      .cls-1 {
        stroke-dasharray: 0 9.49;
      }

      .cls-1, .cls-2, .cls-3, .cls-4, .cls-5, .cls-6, .cls-7, .cls-8, .cls-9, .cls-10, .cls-11, .cls-12, .cls-13, .cls-14, .cls-15 {
        fill: none;
        stroke: #231f20;
        stroke-linecap: round;
        stroke-linejoin: round;
        stroke-width: 3.95px;
      }

      .cls-2 {
        stroke-dasharray: 0 8.71;
      }

      .cls-3 {
        stroke-dasharray: 0 9.99;
      }

      .cls-4 {
        stroke-dasharray: 0 7.82;
      }

      .cls-6 {
        stroke-dasharray: 0 9.96;
      }

      .cls-7 {
        stroke-dasharray: 0 11.02;
      }

      .cls-8 {
        stroke-dasharray: 0 3.99;
      }

      .cls-9 {
        stroke-dasharray: 0 7.78;
      }

      .cls-10 {
        stroke-dasharray: 0 10.09;
      }

      .cls-11 {
        stroke-dasharray: 0 7.97;
      }

      .cls-12 {
        stroke-dasharray: 0 6.61;
      }

      .cls-13 {
        stroke-dasharray: 0 7.43;
      }

      .cls-14 {
        stroke-dasharray: 0 9.12;
      }

      .cls-15 {
        stroke-dasharray: 0 7.44;
      }
    </style>
  </defs>
  <path class="cls-9" d="M98.35,19.52c-32.81-.15-82.21,18.28-68.28,57.28"/>
  <path class="cls-4" d="M35.19,87.38c18.65,30.33,63.8,43.66,90.56,17.95"/>
  <path class="cls-15" d="M133.13,96.72c6.58-9.12,10.98-19.85,11.47-31.18"/>
  <path class="cls-13" d="M143.91,54.34c-1.01-6.21-3.2-12.42-7.37-16.86"/>
  <path class="cls-12" d="M128.06,31.77c-2.98-1.35-6.13-2.42-9.16-3.66"/>
  <path class="cls-14" d="M111.51,22.29c-1.4-.57-6.71-.29-8.13-.82"/>
  <path class="cls-5" d="M99.11,19.94h0M115.89,26.78h0M133.77,35.02h0M144.62,61.79h0M128.46,102.52h0M31.53,80.44h0M106.05,19.94h0"/>
  <path class="cls-1" d="M63.1,51.2c-.32,2.82-.29,4.04-.89,4.64"/>
  <path class="cls-5" d="M61.77,56.63h0M63.1,51.2h0M57.45,54.32h0"/>
  <path class="cls-3" d="M109.44,58.09c-2.39.04-3.44-1.3-3.57-2.7"/>
  <path class="cls-6" d="M114,54.27c1.89-.6-.68-.64-.93,1.11"/>
  <path class="cls-5" d="M109.44,58.09h0M108.83,52.4h0"/>
  <path class="cls-11" d="M86.55,73.92c-1.52-.83-1.67-2.06-1.35-3.4"/>
  <path class="cls-8" d="M86.61,69.59c.66.01,1.32.01,1.98,0"/>
  <path class="cls-5" d="M86.61,69.59h0M86.55,73.92h0"/>
  <path class="cls-7" d="M83.77,95.12c-1.85.68-3.61.79-5.38.83"/>
  <path class="cls-10" d="M93.56,93.36c-2.05,0-3.56.1-4.99.35"/>
  <path class="cls-2" d="M102.15,94.1c1.47.34,2.87.83,4.02,1.55"/>
  <path class="cls-5" d="M108.83,98.98h0M93.56,93.36h0M83.77,95.12h0M72.72,97.57h0"/>
</svg>