<?xml version="1.0" encoding="UTF-8"?>
<svg id="Layer_1" data-name="Layer 1" xmlns="http://www.w3.org/2000/svg" viewBox="0 0 170.08 141.73">
  <defs>
    <style>
      .cls-1 {
        stroke-dasharray: 0 7.3;
      }

      .cls-1, .cls-2, .cls-3, .cls-4, .cls-5, .cls-6, .cls-7, .cls-8, .cls-9, .cls-10, .cls-11, .cls-12, .cls-13, .cls-14, .cls-15, .cls-16, .cls-17, .cls-18, .cls-19, .cls-20, .cls-21 {
        fill: none;
        stroke: #231f20;
        stroke-linecap: round;
        stroke-linejoin: round;
        stroke-width: 4px;
      }

      .cls-3 {
        stroke-dasharray: 0 9.85;
      }

      .cls-4 {
        stroke-dasharray: 0 7.14;
      }

      .cls-5 {
        stroke-dasharray: 0 8.38;
      }

      .cls-6 {
        stroke-dasharray: 0 8.97;
      }

      .cls-7 {
        stroke-dasharray: 0 5.21;
      }

      .cls-8 {
        stroke-dasharray: 0 9.08;
      }

      .cls-9 {
        stroke-dasharray: 0 7.31;
      }

      .cls-10 {
        stroke-dasharray: 0 9.18;
      }

      .cls-11 {
        stroke-dasharray: 0 8.14;
      }

      .cls-12 {
        stroke-dasharray: 0 8.1;
      }

      .cls-13 {
        stroke-dasharray: 0 8.77;
      }

      .cls-14 {
        stroke-dasharray: 0 7.87;
      }

      .cls-15 {
        stroke-dasharray: 0 7.03;
      }

      .cls-16 {
        stroke-dasharray: 0 7.49;
      }

      .cls-17 {
        stroke-dasharray: 0 7.37;
      }

      .cls-18 {
        stroke-dasharray: 0 7.82;
      }

      .cls-19 {
        stroke-dasharray: 0 6.66;
      }

      .cls-20 {
        stroke-dasharray: 0 9.66;
      }

      .cls-21 {
        stroke-dasharray: 0 7.73;
      }
    </style>
  </defs>
  <path class="cls-21" d="M31.92,74.36c-.63.82-1.61,1.89-2.45,2.99"/>
  <path class="cls-11" d="M36.87,67.9c2.49-3.22,5.04-6.4,7.72-9.46"/>
  <path class="cls-20" d="M53.94,48.38c1.11-1.17,2.22-2.34,3.33-3.51"/>
  <path class="cls-10" d="M67.73,35.76c-.51,1.18-1.9,2.1-3.38,3"/>
  <path class="cls-14" d="M73.14,41.46c7.36,8.89,13.03,20.66,15.15,31.61"/>
  <path class="cls-5" d="M88.81,85.32c-.56,4.15-1.87,8.1-3.73,11.95"/>
  <path class="cls-11" d="M79.13,108.08c-.74,1.19-1.52,2.33-2.35,3.32"/>
  <path class="cls-19" d="M67.38,113.52c-.95-.53-1.87-1.19-2.75-1.87"/>
  <path class="cls-4" d="M56.46,105.11c-2.76-2.27-5.5-4.55-8.31-6.75"/>
  <path class="cls-3" d="M37.1,90.76c-1.4-.86-2.8-1.72-4.19-2.59"/>
  <path class="cls-2" d="M28.77,85.5h0M45.31,96.19h0M62.03,109.58h0M73.72,114.05h0M83.11,100.98h0M88.88,76.96h0M67.73,35.76h0M60.59,41.37h0M47.31,55.41h0M31.92,74.36h0M27.82,80.78h0"/>
  <path class="cls-15" d="M102.08,42.32c.49,1.07.93,2.21,1.3,3.27"/>
  <path class="cls-18" d="M107.45,56.17c1.28,3.7,2.31,7.44,3.09,11.31"/>
  <path class="cls-8" d="M112.09,80.36c.07,1.51.11,3.02.13,4.54"/>
  <path class="cls-12" d="M112.19,97.51c.27-1.28.28-2.65.23-4.04"/>
  <path class="cls-7" d="M110.38,102.38c.14-.91.49-1.69.86-2.45"/>
  <path class="cls-2" d="M110.38,102.38h0M112.19,97.52h0M112.25,89.43h0M111.22,71.33h0M104.59,48.89h0M97.15,38.13h0"/>
  <path class="cls-6" d="M118.52,32.03c-.77-1.15-1.49-2.55-2.31-3.85"/>
  <path class="cls-13" d="M123.42,39.31c.81,1.22,1.6,2.44,2.38,3.68"/>
  <path class="cls-1" d="M131.49,53.19c1.62,3.28,3.1,6.77,3.98,10.18"/>
  <path class="cls-17" d="M136.35,74.31c-.04,1.23-.09,2.47-.13,3.68"/>
  <path class="cls-9" d="M135.2,88.91c-.28,1.19-.6,2.37-.95,3.53"/>
  <path class="cls-16" d="M130.9,103.07c-1.27,3.71-2.96,7.79-5,9.98"/>
  <path class="cls-2" d="M122.66,114.67h0M133.14,95.92h0M136.13,81.67h0M136.16,66.95h0M128.05,46.76h0M118.52,32.03h0M113.21,24.9h0"/>
</svg>