<?xml version="1.0" encoding="UTF-8"?>
<svg id="Layer_1" data-name="Layer 1" xmlns="http://www.w3.org/2000/svg" viewBox="0 0 170.08 141.73">
  <defs>
    <style>
      .cls-1 {
        stroke-dasharray: 0 8.02;
      }

      .cls-1, .cls-2, .cls-3, .cls-4, .cls-5, .cls-6, .cls-7, .cls-8, .cls-9, .cls-10, .cls-11, .cls-12, .cls-13, .cls-14, .cls-15 {
        fill: none;
        stroke: #231f20;
        stroke-linecap: round;
        stroke-linejoin: round;
        stroke-width: 4px;
      }

      .cls-2 {
        stroke-dasharray: 0 7.64;
      }

      .cls-3 {
        stroke-dasharray: 0 8.55;
      }

      .cls-4 {
        stroke-dasharray: 0 9.98;
      }

      .cls-5 {
        stroke-dasharray: 0 8;
      }

      .cls-7 {
        stroke-dasharray: 0 8.52;
      }

      .cls-8 {
        stroke-dasharray: 0 8.56;
      }

      .cls-9 {
        stroke-dasharray: 0 8.58;
      }

      .cls-10 {
        stroke-dasharray: 0 6.63;
      }

      .cls-11 {
        stroke-dasharray: 0 7.06;
      }

      .cls-12 {
        stroke-dasharray: 0 8.55;
      }

      .cls-13 {
        stroke-dasharray: 0 11.16;
      }

      .cls-14 {
        stroke-dasharray: 0 7.03;
      }

      .cls-15 {
        stroke-dasharray: 0 7.28;
      }
    </style>
  </defs>
  <path class="cls-7" d="M88.64,19.4c-11.12,2.56-17.53,18.99-20.44,30.51"/>
  <path class="cls-4" d="M65.62,63.91c-.31,1.66-.67,3.29-1.15,4.85"/>
  <path class="cls-10" d="M58.13,78.25c-.84.72-1.7,1.42-2.54,2.14"/>
  <path class="cls-5" d="M48.19,88.92c-4.05,5.84-7.37,13.2-4,18.51"/>
  <path class="cls-12" d="M54.92,112.98c6.61-.2,11.96-6.61,16.3-12.68"/>
  <path class="cls-14" d="M75.88,103.45c1.55,5.78,2.71,11.66,7.1,15.79"/>
  <path class="cls-2" d="M93.05,123.26c1.27-.11,2.49-.48,3.61-1.15"/>
  <path class="cls-13" d="M104.42,109.58c-1.11,1.48-1.8,3.22-2.5,4.97"/>
  <path class="cls-9" d="M110.44,115.6c6.25,4,14.33,4.12,19.44-1.97"/>
  <path class="cls-15" d="M133.68,102.97c-.04-1.22-.25-2.42-.62-3.58"/>
  <path class="cls-1" d="M125.4,90.91c.9,1.02,2,1.77,3.08,2.55"/>
  <path class="cls-8" d="M122.57,82.97c.22,1.46.42,2.87.82,4.2"/>
  <path class="cls-11" d="M121.56,75.98c-.51-3.49-1.07-6.97-1.82-10.43"/>
  <path class="cls-3" d="M116.52,53.91c-3.12-9.53-7.58-19.04-14.57-25.8"/>
  <path class="cls-6" d="M98.71,25.32h0M118.92,62.11h0M122.57,82.97h0M125.4,90.91h0M131.42,96.16h0M132.18,110.02h0M104.42,109.58h0M99.45,119.52h0M85.78,121.35h0M73.66,96.8h0M46.97,110.27h0M53.19,82.67h0M62.55,73.35h0M67.25,54.06h0M97.02,20.05h0"/>
</svg>