<?xml version="1.0" encoding="UTF-8"?>
<svg id="Layer_1" data-name="Layer 1" xmlns="http://www.w3.org/2000/svg" viewBox="0 0 170.08 141.73">
  <defs>
    <style>
      .cls-1 {
        stroke-dasharray: 0 7.5;
      }

      .cls-1, .cls-2, .cls-3, .cls-4, .cls-5, .cls-6, .cls-7, .cls-8, .cls-9, .cls-10, .cls-11, .cls-12, .cls-13, .cls-14, .cls-15, .cls-16, .cls-17, .cls-18, .cls-19, .cls-20, .cls-21, .cls-22, .cls-23, .cls-24 {
        fill: none;
        stroke: #231f20;
        stroke-linecap: round;
        stroke-linejoin: round;
        stroke-width: 3.8px;
      }

      .cls-2 {
        stroke-dasharray: 0 9.17;
      }

      .cls-3 {
        stroke-dasharray: 0 7.23;
      }

      .cls-5 {
        stroke-dasharray: 0 8.04;
      }

      .cls-6 {
        stroke-dasharray: 0 6.77;
      }

      .cls-7 {
        stroke-dasharray: 0 7.4;
      }

      .cls-8 {
        stroke-dasharray: 0 9.47;
      }

      .cls-9 {
        stroke-dasharray: 0 6.68;
      }

      .cls-10 {
        stroke-dasharray: 0 7.19;
      }

      .cls-11 {
        stroke-dasharray: 0 7.6;
      }

      .cls-12 {
        stroke-dasharray: 0 5.87;
      }

      .cls-13 {
        stroke-dasharray: 0 6.93;
      }

      .cls-14 {
        stroke-dasharray: 0 7.83;
      }

      .cls-15 {
        stroke-dasharray: 0 6.39;
      }

      .cls-16 {
        stroke-dasharray: 0 6.67;
      }

      .cls-17 {
        stroke-dasharray: 0 8.66;
      }

      .cls-18 {
        stroke-dasharray: 0 8.41;
      }

      .cls-19 {
        stroke-dasharray: 0 8.41;
      }

      .cls-20 {
        stroke-dasharray: 0 6.78;
      }

      .cls-21 {
        stroke-dasharray: 0 6.46;
      }

      .cls-22 {
        stroke-dasharray: 0 8.87;
      }

      .cls-23 {
        stroke-dasharray: 0 9.02;
      }

      .cls-24 {
        stroke-dasharray: 0 7.81;
      }
    </style>
  </defs>
  <path class="cls-6" d="M53.2,96.29c-2.12-5.14-5.13-9.93-7.58-14.96"/>
  <path class="cls-3" d="M42.08,71.48c-1.44-6.17-1.81-13.72,3.04-16.48"/>
  <path class="cls-8" d="M56.63,58.29c-.9-1.27-2.07-2.42-3.43-3.22"/>
  <path class="cls-17" d="M59.85,66.17c-.82-1.09-1.21-2.5-1.61-3.94"/>
  <path class="cls-14" d="M65.41,63c.62-1.14,1.18-2.37,1.65-3.5"/>
  <path class="cls-5" d="M69.68,48.06c.09-1.31.14-2.63.14-3.95"/>
  <path class="cls-11" d="M69.22,32.69c-.05-1.26-.06-2.51.05-3.74"/>
  <path class="cls-22" d="M76.77,20.43c1.49-.04,3,.33,4.28,1.14"/>
  <path class="cls-12" d="M84.36,30.61c-.11.96-.28,1.92-.46,2.85"/>
  <path class="cls-20" d="M82.01,42.85c-.16,1.14-.24,2.27-.19,3.33"/>
  <path class="cls-24" d="M88.78,47.11c3.53-4.43,7.45-12.17,9.68-16.73"/>
  <path class="cls-23" d="M104.48,19.08c.9-1.29,1.9-2.48,2.98-3.35"/>
  <path class="cls-13" d="M116.39,18.81c.41,1.06.69,2.2.9,3.3"/>
  <path class="cls-9" d="M117.47,32.05c-.75,5.42-2.66,10.63-4.2,15.93"/>
  <path class="cls-1" d="M117.28,45.49c2.54-2.8,5.37-5.5,8.55-7.28"/>
  <path class="cls-19" d="M134.58,40.68c-.08,1.29-.39,2.72-.78,4.06"/>
  <path class="cls-2" d="M127.74,56.48c-.79,1.39-1.53,2.79-2.08,4.04"/>
  <path class="cls-15" d="M131.44,64.25c-.62.04-1.9.38-3.18.6"/>
  <path class="cls-18" d="M139.49,66.07c-1-1.03-2.35-1.53-3.78-1.75"/>
  <path class="cls-10" d="M140.69,72.71c-.96,3.2-3.41,6.54-5.58,9.07"/>
  <path class="cls-16" d="M127.81,88.99c-4.24,3.6-8.92,6.76-13.72,9.6"/>
  <path class="cls-7" d="M104.55,103.7c-9.96,4.76-21.74,8.44-32.56,6.87"/>
  <path class="cls-21" d="M62.57,106.84c-2.55-1.93-4.84-4.33-7.38-6.31"/>
  <path class="cls-4" d="M68.32,109.82h0M111.18,100.26h0M132.69,84.43h0M139.49,66.07h0M131.44,64.25h0M125.09,64.78h0M132.37,48.64h0M129.3,36.71h0M112.4,51.16h0M117.72,25.49h0M111.65,14.26h0M100.14,26.9h0M82.68,49.38h0M83.33,36.3h0M83.83,24.91h0M69.98,25.29h0M69.74,40.15h0M68.38,55.86h0M59.85,66.17h0M56.63,58.29h0M48.6,53.98h0M44.24,78.28h0"/>
</svg>