<?xml version="1.0" encoding="UTF-8"?>
<svg id="Layer_1" data-name="Layer 1" xmlns="http://www.w3.org/2000/svg" viewBox="0 0 170.08 141.73">
  <defs>
    <style>
      .cls-1 {
        stroke-dasharray: 0 7.7;
      }

      .cls-1, .cls-2, .cls-3, .cls-4, .cls-5, .cls-6, .cls-7, .cls-8, .cls-9, .cls-10, .cls-11, .cls-12, .cls-13, .cls-14, .cls-15 {
        fill: none;
        stroke: #231f20;
        stroke-linecap: round;
        stroke-linejoin: round;
        stroke-width: 3.72px;
      }

      .cls-2 {
        stroke-dasharray: 0 8.02;
      }

      .cls-3 {
        stroke-dasharray: 0 9.2;
      }

      .cls-4 {
        stroke-dasharray: 0 5;
      }

      .cls-6 {
        stroke-dasharray: 0 8.01;
      }

      .cls-7 {
        stroke-dasharray: 0 7.26;
      }

      .cls-8 {
        stroke-dasharray: 0 6.38;
      }

      .cls-9 {
        stroke-dasharray: 0 10.41;
      }

      .cls-10 {
        stroke-dasharray: 0 1.59;
      }

      .cls-11 {
        stroke-dasharray: 0 5.61;
      }

      .cls-12 {
        stroke-dasharray: 0 7.32;
      }

      .cls-13 {
        stroke-dasharray: 0 7.55;
      }

      .cls-14 {
        stroke-dasharray: 0 8.13;
      }

      .cls-15 {
        stroke-dasharray: 0 6.92;
      }
    </style>
  </defs>
  <path class="cls-12" d="M110.82,24.68c-28.19-1.5-62.93,1.46-75.92,27.9"/>
  <path class="cls-7" d="M31.41,62.62c-7.3,34.62,32.81,67.89,68.68,56.94"/>
  <path class="cls-13" d="M110.54,115.04c19.43-11.12,27.74-33.02,25.29-54"/>
  <path class="cls-14" d="M133.47,49.71c-2.9-9.38-8.1-16.39-18.01-20.55"/>
  <path class="cls-5" d="M114.87,26.98h0M135.29,57.41h0M103.6,118.35h0M33.45,55.86h0M118.35,25.19"/>
  <path class="cls-2" d="M67.32,61.14c1.36.03,2.74-.44,3.69-1.46"/>
  <path class="cls-3" d="M64,55.88c.22-1.85,1.93-1.71,3.78-1.16"/>
  <path class="cls-5" d="M64,55.88h0M72.28,56.07h0"/>
  <path class="cls-11" d="M111.55,58c.67-.87,1.56-1.02,2.55-.98"/>
  <path class="cls-4" d="M111.57,62.81c-.13-.3-.22-1.36-.24-2.41"/>
  <path class="cls-10" d="M116.99,61.89c.29-.15.55-.21.78-.19"/>
  <path class="cls-5" d="M116.99,61.89h0M111.57,62.81h0M111.55,58h0"/>
  <path class="cls-9" d="M91.17,71.22c2.31-.71,3.13,1.32,2.67,3.06"/>
  <path class="cls-5" d="M91.17,71.22h0M88.86,75.58h0"/>
  <path class="cls-6" d="M59.84,84.09c-.07,1.3-.11,2.59-.01,3.88"/>
  <path class="cls-8" d="M64.06,96.95c2.37,2.03,5.49,3.13,8.85,3.84"/>
  <path class="cls-15" d="M83.23,102.15c3.61.23,7.28.07,10.58-1.01"/>
  <path class="cls-1" d="M103.31,95.16c2.97-2.56,5.66-5.61,7.15-8.86"/>
  <path class="cls-5" d="M111.56,82.73h0M97.01,99.69h0M76.14,101.35h0M60.58,91.78h0M59.92,76.33h0"/>
</svg>