<?xml version="1.0" encoding="UTF-8"?>
<svg id="Layer_1" data-name="Layer 1" xmlns="http://www.w3.org/2000/svg" viewBox="0 0 170.08 141.73">
  <defs>
    <style>
      .cls-1 {
        stroke-dasharray: 0 7.62;
      }

      .cls-1, .cls-2, .cls-3, .cls-4, .cls-5, .cls-6, .cls-7, .cls-8, .cls-9, .cls-10, .cls-11, .cls-12 {
        fill: none;
        stroke: #231f20;
        stroke-linecap: round;
        stroke-linejoin: round;
        stroke-width: 4px;
      }

      .cls-2 {
        stroke-dasharray: 0 8;
      }

      .cls-4 {
        stroke-dasharray: 0 6.94;
      }

      .cls-5 {
        stroke-dasharray: 0 9.84;
      }

      .cls-6 {
        stroke-dasharray: 0 9.23;
      }

      .cls-7 {
        stroke-dasharray: 0 6.62;
      }

      .cls-8 {
        stroke-dasharray: 0 8.82;
      }

      .cls-9 {
        stroke-dasharray: 0 7.67;
      }

      .cls-10 {
        stroke-dasharray: 0 9.05;
      }

      .cls-11 {
        stroke-dasharray: 0 7.56;
      }

      .cls-12 {
        stroke-dasharray: 0 7.28;
      }
    </style>
  </defs>
  <path class="cls-12" d="M64.7,65.85c-.33,8.55-1.96,17.34,1.48,25.18"/>
  <path class="cls-2" d="M73.45,99.95c7.3,5.55,18.34,8.8,26.32,5.48"/>
  <path class="cls-6" d="M109.23,96.48c2.5-3.85,4.56-8.36,5.84-12.51"/>
  <path class="cls-10" d="M116.62,70.46c-.04-1.51-.1-3.02-.14-4.52"/>
  <path class="cls-3" d="M116.48,61.42h0M116.17,79.48h0M103.21,103.42h0M67.92,94.22h0M64.51,58.58h0"/>
  <path class="cls-8" d="M38.51,42.77c4.74,4.65,13.47,8.03,19.4,10.13"/>
  <path class="cls-4" d="M68.55,56.88c3.23,1.29,6.49,2.56,9.82,3.45"/>
  <path class="cls-5" d="M91.56,61.71c1.64-.03,3.28-.11,4.92-.19"/>
  <path class="cls-9" d="M109.02,60.57c1.25-.24,2.47-.58,3.69-1.04"/>
  <path class="cls-7" d="M121.85,54.47c.96-.53,1.93-1.05,2.92-1.56"/>
  <path class="cls-1" d="M134.45,47.84c3.26-2.02,6.47-4.44,8.94-7.08"/>
  <path class="cls-3" d="M145.77,37.79h0M127.74,51.46h0M116.15,57.83h0M101.39,61.29h0M81.75,61.09h0M62.08,54.36h0M35.22,34.96h0"/>
  <line class="cls-11" x1="89.08" y1="76.53" x2="89.08" y2="65.2"/>
  <path class="cls-3" d="M89.08,61.42h0M89.08,84.09h0"/>
</svg>