<?xml version="1.0" encoding="UTF-8"?>
<svg id="Layer_1" data-name="Layer 1" xmlns="http://www.w3.org/2000/svg" viewBox="0 0 170.08 141.73">
  <defs>
    <style>
      .cls-1 {
        stroke-dasharray: 0 7.2;
      }

      .cls-1, .cls-2, .cls-3, .cls-4, .cls-5, .cls-6, .cls-7, .cls-8, .cls-9, .cls-10, .cls-11, .cls-12 {
        fill: none;
        stroke: #231f20;
        stroke-linecap: round;
        stroke-linejoin: round;
        stroke-width: 3.78px;
      }

      .cls-3 {
        stroke-dasharray: 0 8.13;
      }

      .cls-4 {
        stroke-dasharray: 0 9.36;
      }

      .cls-5 {
        stroke-dasharray: 0 7.47;
      }

      .cls-6 {
        stroke-dasharray: 0 7.9;
      }

      .cls-7 {
        stroke-dasharray: 0 8.56;
      }

      .cls-8 {
        stroke-dasharray: 0 7.19;
      }

      .cls-9 {
        stroke-dasharray: 0 7.06;
      }

      .cls-10 {
        stroke-dasharray: 0 7.12;
      }

      .cls-11 {
        stroke-dasharray: 0 7.28;
      }

      .cls-12 {
        stroke-dasharray: 0 7.81;
      }
    </style>
  </defs>
  <path class="cls-11" d="M151.28,78.28c-11.71,9.47-27.17,16.18-41.77,20.35"/>
  <path class="cls-1" d="M99.08,100.76c-14.67,1.32-31.28-3.94-44.56-9.74"/>
  <path class="cls-10" d="M44.97,86.43c-3.11-1.68-6.15-3.56-8.91-5.71"/>
  <path class="cls-4" d="M28.64,70.61c.05-1.4.62-2.81,1.66-4.37"/>
  <path class="cls-6" d="M39.03,57.23c3.06-2.44,6.38-4.55,9.85-6.38"/>
  <path class="cls-3" d="M59.8,46.11c11.25-3.99,23.31-5.86,35.22-6.72"/>
  <path class="cls-8" d="M106.05,39.32c19.05,2.13,29.25,17.45,42.7,30.36"/>
  <path class="cls-2" d="M151.37,72.12h0M99,39.14h0M52.38,49.13h0M33.26,62.6h0M33.35,78.44h0M51.27,89.56h0M106.05,99.57h0"/>
  <path class="cls-5" d="M93.62,46.78c-8.99-.05-17.48,2.32-22.6,10.05"/>
  <path class="cls-7" d="M67.43,68.54c.41,4.13,3.03,7.35,6.85,10.56"/>
  <path class="cls-9" d="M83.57,85.4c10.27,5.09,21.93,4.81,26.06-7.51"/>
  <path class="cls-12" d="M112.84,66.83c-2.79-8.05-5.04-15.77-13.28-19.68"/>
  <path class="cls-2" d="M110.53,74.42h0M77.63,81.73h0M69.2,60.13h0M100.93,47.3"/>
</svg>