<?xml version="1.0" encoding="UTF-8"?>
<svg id="Layer_1" data-name="Layer 1" xmlns="http://www.w3.org/2000/svg" viewBox="0 0 170.08 141.73">
  <defs>
    <style>
      .cls-1 {
        stroke-dasharray: 0 8.02;
      }

      .cls-1, .cls-2, .cls-3, .cls-4, .cls-5, .cls-6, .cls-7, .cls-8, .cls-9, .cls-10 {
        fill: none;
        stroke: #231f20;
        stroke-linecap: round;
        stroke-linejoin: round;
        stroke-width: 4px;
      }

      .cls-2 {
        stroke-dasharray: 0 7.23;
      }

      .cls-3 {
        stroke-dasharray: 0 7.51;
      }

      .cls-4 {
        stroke-dasharray: 0 8;
      }

      .cls-6 {
        stroke-dasharray: 0 6.43;
      }

      .cls-7 {
        stroke-dasharray: 0 7.85;
      }

      .cls-8 {
        stroke-dasharray: 0 8.58;
      }

      .cls-9 {
        stroke-dasharray: 0 7.95;
      }

      .cls-10 {
        stroke-dasharray: 0 8.26;
      }
    </style>
  </defs>
  <path class="cls-2" d="M82.72,44.49c-2.97-5.17-8.59-7.91-15.03-8.91"/>
  <path class="cls-9" d="M56.21,35.84c-9.53,2.27-15.59,9.92-15.29,20.43"/>
  <path class="cls-7" d="M43.41,67.77c5.2,13.28,17.32,23.17,29.1,30.98"/>
  <path class="cls-8" d="M82.92,105.65c1.24.77,2.5,1.47,3.77,2.04"/>
  <path class="cls-6" d="M96.76,107.08c.81-.65,1.56-1.44,2.27-2.27"/>
  <path class="cls-1" d="M105.84,95.88c8.48-11.69,16.56-24.97,21.9-38.15"/>
  <path class="cls-10" d="M131.3,46.02c1.15-6.96.5-14.38-4.21-19.49"/>
  <path class="cls-3" d="M116.91,21.48c-6.03-.54-12.5,2.07-17.57,5.53"/>
  <path class="cls-4" d="M91.06,35.24c-2.19,3.32-3.7,7-5,10.87"/>
  <path class="cls-5" d="M84.85,49.93h0M96.34,29.27h0M123.94,23.88h0M129.19,54h0M101.04,102.3h0M90.79,108.91h0M75.8,100.88h0M41.31,60.22h0M64.1,35.2h0M84.85,51.34h0"/>
</svg>