<?xml version="1.0" encoding="UTF-8"?>
<svg id="Layer_1" data-name="Layer 1" xmlns="http://www.w3.org/2000/svg" viewBox="0 0 170.08 141.73">
  <defs>
    <style>
      .cls-1 {
        stroke-dasharray: 0 9.39;
      }

      .cls-1, .cls-2, .cls-3, .cls-4, .cls-5, .cls-6, .cls-7, .cls-8, .cls-9, .cls-10, .cls-11, .cls-12, .cls-13, .cls-14, .cls-15, .cls-16, .cls-17, .cls-18, .cls-19, .cls-20, .cls-21, .cls-22, .cls-23, .cls-24, .cls-25 {
        fill: none;
        stroke: #231f20;
        stroke-linecap: round;
        stroke-linejoin: round;
        stroke-width: 3.53px;
      }

      .cls-2 {
        stroke-dasharray: 0 7.76;
      }

      .cls-3 {
        stroke-dasharray: 0 7.45;
      }

      .cls-4 {
        stroke-dasharray: 0 7.08;
      }

      .cls-5 {
        stroke-dasharray: 0 6.27;
      }

      .cls-6 {
        stroke-dasharray: 0 3.75;
      }

      .cls-7 {
        stroke-dasharray: 0 7.62;
      }

      .cls-8 {
        stroke-dasharray: 0 6.4;
      }

      .cls-10 {
        stroke-dasharray: 0 5.34;
      }

      .cls-11 {
        stroke-dasharray: 0 6.83;
      }

      .cls-12 {
        stroke-dasharray: 0 6.93;
      }

      .cls-13 {
        stroke-dasharray: 0 7.07;
      }

      .cls-14 {
        stroke-dasharray: 0 6.74;
      }

      .cls-15 {
        stroke-dasharray: 0 7.67;
      }

      .cls-16 {
        stroke-dasharray: 0 7.17;
      }

      .cls-17 {
        stroke-dasharray: 0 7.36;
      }

      .cls-18 {
        stroke-dasharray: 0 6.43;
      }

      .cls-19 {
        stroke-dasharray: 0 6.92;
      }

      .cls-20 {
        stroke-dasharray: 0 6.8;
      }

      .cls-21 {
        stroke-dasharray: 0 6.92;
      }

      .cls-22 {
        stroke-dasharray: 0 8.69;
      }

      .cls-23 {
        stroke-dasharray: 0 7.99;
      }

      .cls-24 {
        stroke-dasharray: 0 7.75;
      }

      .cls-25 {
        stroke-dasharray: 0 6.83;
      }
    </style>
  </defs>
  <path class="cls-12" d="M86.1,22.37c-7.32.12-11.24.97-16.48,3.95"/>
  <path class="cls-14" d="M61.09,31.94c-13.23,9.86-25.14,24.4-28.55,40.45"/>
  <path class="cls-13" d="M31.64,82.74c1.69,35.79,56.89,44.24,83.05,26.24"/>
  <path class="cls-15" d="M122.84,101.35c5.55-7.02,8.45-15.72,9.79-24.64"/>
  <path class="cls-20" d="M133.6,66.14c.2-5.68-.27-11.62-2.64-16.61"/>
  <path class="cls-19" d="M124.4,41.72c-7.96-5.87-14.99-12.63-24.64-14.52"/>
  <path class="cls-6" d="M89.08,29.45c.68,0,1.27.25,1.69.69"/>
  <path class="cls-9" d="M89.08,29.45h0M96.93,26.31h0M129.25,46.61h0M133.11,72.91h0M117.5,106.85h0M31.97,75.7h0M66.65,28.12h0M92.15,25.62h0"/>
  <path class="cls-7" d="M82.52,30.23c-2.57,2.46-6.72,4.15-9.2,6.76"/>
  <path class="cls-25" d="M74.79,45.55c1,.51,2.1.93,3.17,1.29"/>
  <path class="cls-2" d="M88.37,50.86c1.12.65,2.16,1.41,3.08,2.34"/>
  <path class="cls-4" d="M96.84,62.68c.56,1.03,1.18,2.02,1.95,2.95"/>
  <path class="cls-23" d="M108.6,71.37c1.28.37,2.59.67,3.89.92"/>
  <path class="cls-8" d="M122.84,73.28c5.92-.18,10.44-2.28,11.87-8.54"/>
  <path class="cls-9" d="M116.45,72.9h0M101.37,68.03h0M93.75,56.32h0M81.21,47.88h0M71.45,40.26h0"/>
  <path class="cls-17" d="M44.34,52.4c6.39-2.13,12.1-1.39,16.06,4.96"/>
  <path class="cls-24" d="M65,67.79c.52,1.18,1.07,2.34,1.7,3.47"/>
  <path class="cls-10" d="M72.13,78.68c.49.77.85,1.57,1,2.45"/>
  <path class="cls-22" d="M67.64,90.54c-1.12.94-2.31,1.82-3.46,2.63"/>
  <path class="cls-11" d="M54.7,99.08c-1.05.48-2.14.87-3.23,1.1"/>
  <path class="cls-18" d="M42.14,97.87c-2.73-1.61-5.43-3.71-7.95-5.46"/>
  <path class="cls-9" d="M31.51,90.65h0M48.07,100.28h0M60.57,95.59h0M72.9,83.76h0M68.81,74.51h0M62.08,60.63h0M37.65,55.46h0"/>
  <path class="cls-16" d="M89.48,111.05c.2-5.97,1.52-11.71,2.58-17.7"/>
  <path class="cls-3" d="M94.1,82.54c1.19-3.7,3.26-6.35,7.71-7.2"/>
  <path class="cls-5" d="M111.67,76.15c.98.37,1.92.84,2.78,1.43"/>
  <path class="cls-21" d="M119.82,85.83c-.76-.78-1.16-1.9-1.57-3.05"/>
  <path class="cls-1" d="M126.7,91.42c-.54-2.33-1.53-3.1-2.71-3.56"/>
  <path class="cls-9" d="M126.7,91.42h0M119.82,85.83h0M116.76,79.68h0M105.52,75.05h0M92.63,89.82h0M89.85,118.2h0"/>
</svg>