<?xml version="1.0" encoding="UTF-8"?>
<svg id="Layer_1" data-name="Layer 1" xmlns="http://www.w3.org/2000/svg" viewBox="0 0 170.08 141.73">
  <defs>
    <style>
      .cls-1 {
        stroke-dasharray: 0 7.15;
      }

      .cls-1, .cls-2, .cls-3, .cls-4, .cls-5, .cls-6, .cls-7, .cls-8, .cls-9, .cls-10, .cls-11, .cls-12, .cls-13, .cls-14, .cls-15 {
        fill: none;
        stroke: #231f20;
        stroke-linecap: round;
        stroke-linejoin: round;
        stroke-width: 3.73px;
      }

      .cls-2 {
        stroke-dasharray: 0 7.35;
      }

      .cls-3 {
        stroke-dasharray: 0 9.71;
      }

      .cls-5 {
        stroke-dasharray: 0 6.83;
      }

      .cls-6 {
        stroke-dasharray: 0 7.07;
      }

      .cls-7 {
        stroke-dasharray: 0 7;
      }

      .cls-8 {
        stroke-dasharray: 0 8.28;
      }

      .cls-9 {
        stroke-dasharray: 0 7.54;
      }

      .cls-10 {
        stroke-dasharray: 0 1.68;
      }

      .cls-11 {
        stroke-dasharray: 0 8.32;
      }

      .cls-12 {
        stroke-dasharray: 0 7.82;
      }

      .cls-13 {
        stroke-dasharray: 0 6.59;
      }

      .cls-14 {
        stroke-dasharray: 0 8.23;
      }

      .cls-15 {
        stroke-dasharray: 0 8.05;
      }
    </style>
  </defs>
  <path class="cls-1" d="M94.54,45.13c-17.46-1.87-37.63,3.5-47.06,19.07"/>
  <path class="cls-2" d="M43.52,74.34c-3.81,21.51,24.07,35.29,43.81,32.1"/>
  <path class="cls-6" d="M97.43,103.01c11.65-6.19,19.03-18.84,17.44-32.23"/>
  <path class="cls-15" d="M111.35,59.78c-3.36-5.9-8.68-9.91-15.08-12.79"/>
  <path class="cls-4" d="M114.25,67.28h0M90.91,105.64h0M45.8,67.35h0"/>
  <line class="cls-14" x1="87.19" y1="20.92" x2="87.19" y2="8.53"/>
  <path class="cls-4" d="M87.19,29.18h0"/>
  <path class="cls-11" d="M130.23,34.36c1.01-.98,2.06-1.93,3.06-2.81"/>
  <path class="cls-10" d="M138.06,29.18c-.36-.11-.61-.08-.83-.07"/>
  <path class="cls-4" d="M138.06,29.18h0M136.46,28.85h0M124.93,40.74h0"/>
  <line class="cls-13" x1="142.99" y1="77.09" x2="146.27" y2="77.09"/>
  <path class="cls-4" d="M149.55,77.09h0M136.42,77.09h0"/>
  <path class="cls-9" d="M127.75,111.68c1.01.75,2,1.56,2.98,2.3"/>
  <path class="cls-4" d="M133.96,115.91h0M120.83,109.3h0"/>
  <line class="cls-12" x1="92.11" y1="123.75" x2="92.11" y2="127.68"/>
  <path class="cls-4" d="M92.11,131.6h0M92.11,115.91h0"/>
  <path class="cls-8" d="M52.33,111.67c1-.99,1.98-1.99,3.09-2.74"/>
  <path class="cls-3" d="M45.33,118.38c1.07-1.26,2.24-2.36,3.43-3.43"/>
  <path class="cls-4" d="M45.33,118.38h0M52.33,111.67h0M59.29,107.65h0"/>
  <line class="cls-7" x1="23.59" y1="82.04" x2="27.08" y2="82.04"/>
  <path class="cls-4" d="M30.56,82.04h0M16.61,82.04h0"/>
  <path class="cls-5" d="M39.38,32.99c.8.82,1.6,1.66,2.41,2.42"/>
  <path class="cls-4" d="M44.51,37.44h0M33.85,29.18h0"/>
</svg>